<svg width="50" height="40" viewBox="0 0 50 40" fill="none" xmlns="http://www.w3.org/2000/svg">
<path d="M0.0319214 28.3486C0.032448 29.7777 0.467829 31.1729 1.28022 32.3486C2.09261 33.5244 3.24354 34.4251 4.58009 34.9311C5.91664 35.4371 7.37552 35.5244 8.76288 35.1814C10.1502 34.8385 11.4004 34.0815 12.3472 33.011L19.7283 24.6513C20.3902 23.904 21.2032 23.3057 22.1136 22.8959C23.0239 22.4862 24.0109 22.2743 25.0092 22.2743C26.0075 22.2743 26.9944 22.4862 27.9048 22.8959C28.8151 23.3057 29.6281 23.904 30.2901 24.6513L37.6847 33.011C38.6316 34.0815 39.8817 34.8385 41.2691 35.1814C42.6564 35.5244 44.1153 35.4371 45.4519 34.9311C46.7884 34.4251 47.9393 33.5244 48.7517 32.3486C49.5641 31.1729 49.9995 29.7777 50 28.3486C50.0011 26.6372 49.3776 24.9842 48.2465 23.6998L30.3173 3.31016C29.6565 2.56093 28.8439 1.9609 27.9334 1.54988C27.0229 1.13886 26.0353 0.926269 25.0364 0.92627C24.0374 0.92627 23.0498 1.13886 22.1393 1.54988C21.2288 1.9609 20.4162 2.56093 19.7555 3.31016L1.81261 23.6998C0.67169 24.9802 0.0383619 26.6336 0.0319214 28.3486Z" fill="white"/>
<path d="M29.5149 34.4519C29.5149 31.8994 27.4457 29.8302 24.8933 29.8302C22.3408 29.8302 20.2716 31.8994 20.2716 34.4519C20.2716 37.0043 22.3408 39.0735 24.8933 39.0735C27.4457 39.0735 29.5149 37.0043 29.5149 34.4519Z" fill="white"/>
</svg>
