<svg width="720" height="549" viewBox="0 0 720 549" fill="none" xmlns="http://www.w3.org/2000/svg">
<g style="mix-blend-mode:multiply" opacity="0.1">
<path d="M0 320.148C0.011383 350.643 9.4216 380.413 26.9805 405.502C44.5393 430.59 69.4153 449.81 98.3032 460.607C127.191 471.404 158.723 473.268 188.709 465.949C218.695 458.631 245.716 442.478 266.181 419.636L425.713 241.253C440.02 225.307 457.592 212.54 477.268 203.797C496.944 195.054 518.276 190.533 539.853 190.533C561.43 190.533 582.762 195.054 602.438 203.797C622.114 212.54 639.686 225.307 653.993 241.253L813.819 419.636C834.284 442.478 861.305 458.631 891.291 465.949C921.277 473.268 952.809 471.404 981.697 460.607C1010.58 449.81 1035.46 430.59 1053.02 405.502C1070.58 380.413 1079.99 350.643 1080 320.148C1080.02 283.629 1066.55 248.356 1042.1 220.949L654.581 -214.132C640.3 -230.119 622.736 -242.923 603.056 -251.693C583.377 -260.464 562.033 -265 540.441 -265C518.849 -265 497.505 -260.464 477.825 -251.693C458.146 -242.923 440.582 -230.119 426.3 -214.132L38.4874 220.949C13.8278 248.271 0.139204 283.553 0 320.148Z" fill="#CCCCCC"/>
<path d="M637.239 450.382C637.239 395.916 592.516 351.763 537.348 351.763C482.18 351.763 437.457 395.916 437.457 450.382C437.457 504.847 482.18 549 537.348 549C592.517 549 637.239 504.847 637.239 450.382Z" fill="#CCCCCC"/>
</g>
</svg>
